<?xml version="1.0" standalone="no"?>
<!DOCTYPE svg PUBLIC "-//W3C//DTD SVG 20010904//EN"
 "http://www.w3.org/TR/2001/REC-SVG-20010904/DTD/svg10.dtd">
<svg version="1.0" xmlns="http://www.w3.org/2000/svg"
 width="700.000000pt" height="700.000000pt" viewBox="0 0 700.000000 700.000000"
 preserveAspectRatio="xMidYMid meet">
<metadata>
Created by potrace 1.11, written by Peter Selinger 2001-2013
</metadata>
<g transform="translate(0.000000,700.000000) scale(0.100000,-0.100000)"
fill="#000000" stroke="none">
<path d="M6929 6096 c-2 -2 -40 -7 -84 -10 -177 -14 -211 -17 -245 -21 -19 -2
-62 -7 -95 -11 -33 -3 -68 -8 -77 -9 -9 -2 -49 -6 -90 -10 -40 -3 -86 -8 -103
-10 -16 -2 -66 -6 -110 -10 -44 -4 -89 -9 -100 -11 -11 -2 -45 -6 -75 -9 -30
-3 -66 -8 -80 -10 -14 -3 -41 -7 -60 -10 -46 -6 -458 -65 -490 -70 -14 -2 -74
-11 -135 -20 -97 -13 -146 -21 -252 -40 -53 -9 -218 -37 -248 -41 -16 -3 -40
-7 -51 -9 -19 -4 -226 -43 -319 -59 -44 -8 -62 -12 -171 -36 -55 -12 -110 -24
-124 -26 -14 -3 -68 -14 -120 -25 -52 -11 -106 -22 -120 -25 -24 -5 -66 -15
-375 -89 -348 -84 -714 -176 -770 -194 -33 -10 -132 -40 -220 -66 -767 -224
-1666 -562 -2337 -879 l-78 -36 0 -245 c0 -274 -8 -252 75 -215 22 10 69 30
105 45 36 15 83 35 105 45 139 63 634 260 840 335 72 26 137 50 145 55 9 4 31
11 50 15 19 4 40 11 45 15 6 4 19 10 30 13 11 2 92 30 180 60 233 80 628 206
730 233 6 1 118 32 250 69 132 36 300 81 373 100 72 19 193 51 266 70 115 30
193 48 301 71 11 2 29 6 40 8 11 3 103 23 205 46 207 46 353 77 390 84 14 3
93 18 175 35 144 29 173 34 240 46 17 3 41 8 55 10 51 10 75 15 110 20 20 3
47 8 60 10 124 24 186 35 236 40 32 4 61 8 65 10 3 2 34 9 70 15 35 5 75 12
89 14 14 3 43 7 64 11 21 3 48 7 60 10 12 2 41 7 66 10 25 3 56 7 70 10 14 2
45 6 70 9 52 7 89 12 185 26 39 5 93 12 120 15 28 3 61 8 75 10 14 2 44 7 68
10 23 3 59 7 81 10 21 3 56 8 76 10 21 3 50 7 64 9 14 3 55 7 91 11 36 3 117
13 180 20 130 16 212 25 285 31 91 7 185 26 192 37 12 18 13 458 2 479 -9 16
-39 25 -50 14z"/>
<path d="M6192 4055 c-394 -117 -650 -370 -749 -741 -23 -86 -26 -119 -27
-259 -1 -176 4 -214 40 -325 88 -264 294 -500 549 -628 123 -61 271 -90 443
-87 164 3 245 24 410 102 110 52 132 71 132 116 0 45 -8 50 -39 28 -106 -74
-266 -136 -406 -158 -128 -19 -321 2 -440 49 -215 84 -384 229 -490 418 -186
329 -160 742 64 1050 49 67 167 182 233 227 72 49 187 101 274 124 92 25 274
33 374 18 101 -16 229 -63 324 -119 47 -28 91 -48 96 -45 18 11 11 61 -12 82
-59 54 -234 130 -343 148 -22 4 -51 8 -65 11 -14 2 -83 6 -155 9 -117 4 -138
2 -213 -20z"/>
<path d="M6008 3508 c-47 -73 -86 -137 -150 -248 -120 -206 -165 -286 -177
-316 -12 -31 -22 -158 -14 -180 3 -7 37 -12 91 -14 96 -2 260 -7 279 -9 10 -1
12 -26 10 -94 -3 -123 1 -127 101 -122 42 2 79 4 82 4 3 1 5 44 6 96 0 53 5
100 11 106 5 5 23 12 39 15 56 9 57 10 52 70 -5 64 -12 72 -55 76 -18 1 -35 9
-39 18 -3 8 -8 58 -10 110 -4 112 -9 136 -26 137 -84 5 -106 5 -116 -1 -12 -7
-29 -81 -37 -163 -9 -88 -12 -93 -53 -94 -74 -3 -144 0 -150 6 -8 7 25 68 199
373 l128 222 -59 30 c-33 17 -64 30 -69 30 -5 0 -24 -24 -43 -52z"/>
<path d="M6710 3546 c-78 -27 -167 -107 -202 -183 -17 -34 -2 -67 37 -86 38
-18 85 -23 85 -8 0 5 21 32 46 60 74 82 154 90 201 20 58 -89 29 -151 -161
-341 -178 -178 -206 -227 -211 -379 l-3 -79 217 1 c119 1 227 4 241 8 23 6 25
12 28 66 4 90 -1 94 -138 96 -63 2 -121 4 -127 7 -43 14 20 97 172 227 108 92
98 59 93 299 -4 230 -11 260 -61 284 -37 18 -174 23 -217 8z"/>
<path d="M435 3034 c-169 -28 -216 -39 -418 -100 -16 -5 -18 -21 -17 -185 1
-98 5 -181 9 -183 3 -3 42 11 86 31 88 38 213 81 260 89 17 2 53 8 81 13 90
14 263 7 328 -14 153 -49 222 -143 241 -329 9 -90 13 -211 8 -239 -5 -28 -21
-34 -105 -42 -29 -3 -66 -8 -83 -10 -16 -2 -66 -6 -110 -10 -212 -17 -365 -59
-580 -160 -136 -63 -128 -23 -133 -727 l-3 -587 45 -21 c25 -11 58 -25 73 -31
143 -57 399 -48 568 19 101 40 260 147 348 234 l38 38 15 -38 c56 -143 127
-269 159 -284 28 -12 74 9 212 98 l91 59 -44 90 c-50 103 -95 230 -100 284 -1
20 -5 212 -8 426 -12 758 -16 961 -22 1044 -14 204 -131 379 -308 465 -107 51
-184 71 -326 81 -149 12 -177 11 -305 -11z m566 -1296 c16 -30 17 -535 1 -592
-18 -62 -48 -96 -151 -172 -158 -116 -203 -138 -326 -158 -168 -28 -302 38
-373 185 -37 76 -42 99 -47 204 -11 296 168 462 575 529 116 19 134 21 232 24
71 3 78 1 89 -20z"/>
<path d="M2187 3015 c-106 -55 -197 -125 -197 -151 0 -12 14 -55 31 -95 50
-121 69 -180 75 -234 3 -27 8 -57 11 -65 2 -8 7 -258 9 -555 7 -973 13 -1338
23 -1348 10 -10 184 -12 265 -3 85 10 86 11 87 74 1 31 3 131 4 222 2 91 4
449 5 795 l1 630 32 40 c17 22 39 49 47 59 8 10 55 61 103 112 144 151 223
190 339 165 119 -26 113 -27 131 13 29 62 44 98 88 204 48 117 50 108 -41 143
-58 23 -186 30 -265 16 -124 -23 -297 -160 -447 -355 -18 -23 -35 -39 -39 -34
-3 4 -22 57 -42 119 -51 159 -115 284 -145 283 -4 0 -37 -16 -75 -35z"/>
<path d="M4235 3043 c-112 -15 -234 -59 -369 -135 -62 -34 -208 -185 -264
-271 -120 -185 -188 -374 -215 -596 -20 -163 -15 -640 7 -735 94 -407 290
-661 592 -769 94 -34 155 -42 304 -42 173 1 239 11 410 66 115 37 308 128 334
157 24 28 19 63 -29 184 -41 101 -62 133 -79 119 -6 -4 -49 -25 -96 -46 -47
-21 -119 -53 -160 -72 -41 -19 -82 -36 -90 -38 -8 -2 -37 -9 -65 -15 -66 -15
-227 -20 -300 -8 -205 32 -368 238 -421 533 -19 107 -22 177 -20 420 3 283 10
353 55 503 15 49 71 162 100 202 120 164 358 245 571 194 93 -21 189 -72 313
-165 60 -45 110 -79 111 -77 2 1 38 69 80 150 l76 146 -47 42 c-119 106 -315
199 -503 241 -54 11 -237 19 -295 12z"/>
</g>
</svg>
