<?xml version="1.0" encoding="UTF-8" standalone="no"?>
<!DOCTYPE svg PUBLIC "-//W3C//DTD SVG 1.1//EN" "http://www.w3.org/Graphics/SVG/1.1/DTD/svg11.dtd">
<svg xmlns:xl="http://www.w3.org/1999/xlink" xmlns="http://www.w3.org/2000/svg" xmlns:dc="http://purl.org/dc/elements/1.1/" version="1.1" viewBox="-17.478896 76.14548 630.9722 342.4519" width="630.9722" height="342.4519">
  <defs>
    <linearGradient x1="0" x2="1" id="Gradient" gradientUnits="userSpaceOnUse">
      <stop offset="0" stop-color="#fffd78"/>
      <stop offset=".5394832" stop-color="#76d6ff"/>
      <stop offset="1" stop-color="#ff2f92"/>
    </linearGradient>
    <linearGradient id="Obj_Gradient" xl:href="#Gradient" gradientTransform="translate(275.72565 377.5471) rotate(-4) scale(45.846)"/>
    <marker orient="auto" overflow="visible" markerUnits="strokeWidth" id="FilledArrow_Marker" stroke-linejoin="miter" stroke-miterlimit="10" viewBox="-1 -4 10 8" markerWidth="10" markerHeight="8" color="black">
      <g>
        <path d="M 8 0 L 0 -3 L 0 3 Z" fill="currentColor" stroke="currentColor" stroke-width="1"/>
      </g>
    </marker>
  </defs>
  <g id="arc42_QM_nicer_design_1" stroke-opacity="1" fill="none" fill-opacity="1" stroke-dasharray="none" stroke="none">
    <title>arc42 QM nicer design 1</title>
    <g id="arc42_QM_nicer_design_1_Ebene_1">
      <title>Ebene 1</title>
      <g id="Graphic_1245">
        <rect x="92.25" y="148.5" width="414" height="186.75" fill="#dcf1ff"/>
        <rect x="92.25" y="148.5" width="414" height="186.75" stroke="#929292" stroke-linecap="round" stroke-linejoin="round" stroke-width="1"/>
      </g>
      <g id="Graphic_1246">
        <text transform="translate(108.5 203.25862)" fill="black">
          <tspan font-family="Mark Pro" font-size="20" fill="black" x="2.8882507" y="20">#reliable</tspan>
        </text>
      </g>
      <g id="Graphic_1247">
        <text transform="translate(175.35798 165.11638)" fill="black">
          <tspan font-family="Mark Pro" font-size="20" fill="black" x="3.851999" y="20">#flexible</tspan>
        </text>
      </g>
      <g id="Graphic_1248">
        <text transform="translate(328.75 165.11638)" fill="black">
          <tspan font-family="Mark Pro" font-size="20" fill="black" x="5.5355005" y="20">#efficient</tspan>
        </text>
      </g>
      <g id="Graphic_1249">
        <text transform="translate(400.75 257.63362)" fill="black">
          <tspan font-family="Mark Pro" font-size="20" fill="black" x=".22" y="20">#operable</tspan>
        </text>
      </g>
      <g id="Graphic_1250">
        <text transform="translate(108.5 257.63362)" fill="black">
          <tspan font-family="Mark Pro" font-size="20" fill="black" x="13.258492" y="20">#safe</tspan>
        </text>
      </g>
      <g id="Graphic_1251">
        <text transform="translate(183.375 294.75862)" fill="black">
          <tspan font-family="Mark Pro" font-size="20" fill="black" x="2.9084923" y="20">#secure</tspan>
        </text>
      </g>
      <g id="Graphic_1252">
        <text transform="translate(328.75 294.75862)" fill="black">
          <tspan font-family="Mark Pro" font-size="20" fill="black" x="2.64" y="20">#testable</tspan>
        </text>
      </g>
      <g id="Graphic_1253">
        <text transform="translate(400.75 203.25862)" fill="black">
          <tspan font-family="Mark Pro" font-size="20" fill="black" x="2.8084923" y="20">#usable</tspan>
        </text>
      </g>
      <g id="Graphic_1254">
        <text transform="translate(248.36825 209.5625)" fill="black">
          <tspan font-family="Mark Pro" font-size="23" fill="black" x="4618528e-19" y="23">System /</tspan>
          <tspan font-family="Mark Pro" font-size="23" fill="black" x="6.50325" y="52">Product</tspan>
        </text>
      </g>
      <g id="Graphic_1271">
        <title>People</title>
        <path d="M 172.5925 374.5974 C 175.9125 374.5974 178.5725 371.9174 178.5725 368.5974 C 178.5725 365.2774 175.9125 362.5974 172.5925 362.5974 C 169.2725 362.5974 166.5925 365.2774 166.5925 368.5974 C 166.5925 371.9174 169.2725 374.5974 172.5925 374.5974 Z M 156.5925 374.5974 C 159.9125 374.5974 162.5725 371.9174 162.5725 368.5974 C 162.5725 365.2774 159.9125 362.5974 156.5925 362.5974 C 153.2725 362.5974 150.5925 365.2774 150.5925 368.5974 C 150.5925 371.9174 153.2725 374.5974 156.5925 374.5974 Z M 156.5925 378.5974 C 151.9325 378.5974 142.5925 380.9374 142.5925 385.5974 L 142.5925 390.5974 L 170.5925 390.5974 L 170.5925 385.5974 C 170.5925 380.9374 161.2525 378.5974 156.5925 378.5974 Z M 172.5925 378.5974 C 172.0125 378.5974 171.3525 378.6374 170.6525 378.6974 C 172.9725 380.3774 174.5925 382.6374 174.5925 385.5974 L 174.5925 390.5974 L 186.5925 390.5974 L 186.5925 385.5974 C 186.5925 380.9374 177.2525 378.5974 172.5925 378.5974 Z" fill="#ff7e79"/>
      </g>
      <g id="Graphic_1274">
        <text transform="translate(115.5 395.5974)" fill="black">
          <tspan font-family="Mark Pro" font-size="14" fill="black" x="1.6295005" y="14">Product Owner</tspan>
        </text>
      </g>
      <g id="Graphic_1270">
        <title>People</title>
        <path d="M 35.256104 228.5625 C 38.576104 228.5625 41.236104 225.8825 41.236104 222.5625 C 41.236104 219.2425 38.576104 216.5625 35.256104 216.5625 C 31.936104 216.5625 29.256104 219.2425 29.256104 222.5625 C 29.256104 225.8825 31.936104 228.5625 35.256104 228.5625 Z M 19.256104 228.5625 C 22.576104 228.5625 25.236104 225.8825 25.236104 222.5625 C 25.236104 219.2425 22.576104 216.5625 19.256104 216.5625 C 15.936104 216.5625 13.256104 219.2425 13.256104 222.5625 C 13.256104 225.8825 15.936104 228.5625 19.256104 228.5625 Z M 19.256104 232.5625 C 14.596104 232.5625 5.256104 234.9025 5.256104 239.5625 L 5.256104 244.5625 L 33.256104 244.5625 L 33.256104 239.5625 C 33.256104 234.9025 23.916104 232.5625 19.256104 232.5625 Z M 35.256104 232.5625 C 34.676104 232.5625 34.016104 232.6025 33.316104 232.6625 C 35.636104 234.3425 37.256104 236.6025 37.256104 239.5625 L 37.256104 244.5625 L 49.256104 244.5625 L 49.256104 239.5625 C 49.256104 234.9025 39.916104 232.5625 35.256104 232.5625 Z" fill="#ffc0c0"/>
      </g>
      <g id="Graphic_1275">
        <text transform="translate(-12.478894 249.5625)" fill="black">
          <tspan font-family="Mark Pro" font-size="14" fill="black" x="0" y="14">Developers</tspan>
        </text>
      </g>
      <g id="Graphic_1268">
        <title>People</title>
        <path d="M 591.9723 228.9513 C 595.2923 228.9513 597.9523 226.2713 597.9523 222.9513 C 597.9523 219.6313 595.2923 216.9513 591.9723 216.9513 C 588.6523 216.9513 585.9723 219.6313 585.9723 222.9513 C 585.9723 226.2713 588.6523 228.9513 591.9723 228.9513 Z M 575.9723 228.9513 C 579.2923 228.9513 581.9523 226.2713 581.9523 222.9513 C 581.9523 219.6313 579.2923 216.9513 575.9723 216.9513 C 572.6523 216.9513 569.9723 219.6313 569.9723 222.9513 C 569.9723 226.2713 572.6523 228.9513 575.9723 228.9513 Z M 575.9723 232.9513 C 571.3123 232.9513 561.9723 235.2913 561.9723 239.9513 L 561.9723 244.9513 L 589.9723 244.9513 L 589.9723 239.9513 C 589.9723 235.2913 580.6323 232.9513 575.9723 232.9513 Z M 591.9723 232.9513 C 591.3923 232.9513 590.7323 232.9913 590.0323 233.0513 C 592.3523 234.7313 593.9723 236.9913 593.9723 239.9513 L 593.9723 244.9513 L 605.9723 244.9513 L 605.9723 239.9513 C 605.9723 235.2913 596.6323 232.9513 591.9723 232.9513 Z" fill="#414289"/>
      </g>
      <g id="Graphic_1276">
        <text transform="translate(559.4513 249.9513)" fill="black">
          <tspan font-family="Mark Pro" font-size="14" fill="black" x="6430412e-19" y="14">Testers</tspan>
        </text>
      </g>
      <g id="Graphic_1273">
        <title>People</title>
        <path d="M 169.2595 88.14548 C 172.5795 88.14548 175.2395 85.46548 175.2395 82.14548 C 175.2395 78.82548 172.5795 76.14548 169.2595 76.14548 C 165.9395 76.14548 163.2595 78.82548 163.2595 82.14548 C 163.2595 85.46548 165.9395 88.14548 169.2595 88.14548 Z M 153.2595 88.14548 C 156.5795 88.14548 159.2395 85.46548 159.2395 82.14548 C 159.2395 78.82548 156.5795 76.14548 153.2595 76.14548 C 149.9395 76.14548 147.2595 78.82548 147.2595 82.14548 C 147.2595 85.46548 149.9395 88.14548 153.2595 88.14548 Z M 153.2595 92.14548 C 148.5995 92.14548 139.2595 94.48548 139.2595 99.14548 L 139.2595 104.14548 L 167.2595 104.14548 L 167.2595 99.14548 C 167.2595 94.48548 157.9195 92.14548 153.2595 92.14548 Z M 169.2595 92.14548 C 168.6795 92.14548 168.0195 92.18548 167.3195 92.24548 C 169.6395 93.92548 171.2595 96.18548 171.2595 99.14548 L 171.2595 104.14548 L 183.2595 104.14548 L 183.2595 99.14548 C 183.2595 94.48548 173.9195 92.14548 169.2595 92.14548 Z" fill="#c1c1c1"/>
      </g>
      <g id="Graphic_1278">
        <text transform="translate(115.5425 105.14548)" fill="black">
          <tspan font-family="Mark Pro" font-size="14" fill="black" x="5400125e-19" y="14">Management</tspan>
        </text>
      </g>
      <g id="Graphic_1280">
        <text transform="translate(280.3465 105.25325)" fill="black">
          <tspan font-family="Mark Pro" font-size="14" fill="black" x="0" y="14">Users</tspan>
        </text>
      </g>
      <g id="Graphic_1281">
        <title>People</title>
        <path d="M 307.425 88.14548 C 310.745 88.14548 313.405 85.46548 313.405 82.14548 C 313.405 78.82548 310.745 76.14548 307.425 76.14548 C 304.105 76.14548 301.425 78.82548 301.425 82.14548 C 301.425 85.46548 304.105 88.14548 307.425 88.14548 Z M 291.425 88.14548 C 294.745 88.14548 297.405 85.46548 297.405 82.14548 C 297.405 78.82548 294.745 76.14548 291.425 76.14548 C 288.105 76.14548 285.425 78.82548 285.425 82.14548 C 285.425 85.46548 288.105 88.14548 291.425 88.14548 Z M 291.425 92.14548 C 286.765 92.14548 277.425 94.48548 277.425 99.14548 L 277.425 104.14548 L 305.425 104.14548 L 305.425 99.14548 C 305.425 94.48548 296.085 92.14548 291.425 92.14548 Z M 307.425 92.14548 C 306.845 92.14548 306.185 92.18548 305.485 92.24548 C 307.805 93.92548 309.425 96.18548 309.425 99.14548 L 309.425 104.14548 L 321.425 104.14548 L 321.425 99.14548 C 321.425 94.48548 312.085 92.14548 307.425 92.14548 Z" fill="#76d6ff"/>
      </g>
      <g id="Graphic_1279">
        <title>People</title>
        <path d="M 445.2271 88.25325 C 448.5471 88.25325 451.2071 85.57325 451.2071 82.25325 C 451.2071 78.93325 448.5471 76.25325 445.2271 76.25325 C 441.9071 76.25325 439.2271 78.93325 439.2271 82.25325 C 439.2271 85.57325 441.9071 88.25325 445.2271 88.25325 Z M 429.2271 88.25325 C 432.5471 88.25325 435.2071 85.57325 435.2071 82.25325 C 435.2071 78.93325 432.5471 76.25325 429.2271 76.25325 C 425.9071 76.25325 423.2271 78.93325 423.2271 82.25325 C 423.2271 85.57325 425.9071 88.25325 429.2271 88.25325 Z M 429.2271 92.25325 C 424.5671 92.25325 415.2271 94.59325 415.2271 99.25325 L 415.2271 104.25325 L 443.2271 104.25325 L 443.2271 99.25325 C 443.2271 94.59325 433.8871 92.25325 429.2271 92.25325 Z M 445.2271 92.25325 C 444.6471 92.25325 443.9871 92.29325 443.2871 92.35325 C 445.6071 94.03325 447.2271 96.29325 447.2271 99.25325 L 447.2271 104.25325 L 459.2271 104.25325 L 459.2271 99.25325 C 459.2271 94.59325 449.8871 92.25325 445.2271 92.25325 Z" fill="#c0c0ff"/>
      </g>
      <g id="Graphic_1282">
        <text transform="translate(373.08836 105.25325)" fill="black">
          <tspan font-family="Mark Pro" font-size="14" fill="black" x="9.115256" y="14">Domain Experts</tspan>
        </text>
      </g>
      <g id="Graphic_1272">
        <title>People</title>
        <path d="M 445.93564 373.94805 C 449.25564 373.94805 451.91564 371.26805 451.91564 367.94805 C 451.91564 364.62805 449.25564 361.94805 445.93564 361.94805 C 442.61564 361.94805 439.93564 364.62805 439.93564 367.94805 C 439.93564 371.26805 442.61564 373.94805 445.93564 373.94805 Z M 429.93564 373.94805 C 433.25564 373.94805 435.91564 371.26805 435.91564 367.94805 C 435.91564 364.62805 433.25564 361.94805 429.93564 361.94805 C 426.61564 361.94805 423.93564 364.62805 423.93564 367.94805 C 423.93564 371.26805 426.61564 373.94805 429.93564 373.94805 Z M 429.93564 377.94805 C 425.27564 377.94805 415.93564 380.28805 415.93564 384.94805 L 415.93564 389.94805 L 443.93564 389.94805 L 443.93564 384.94805 C 443.93564 380.28805 434.59564 377.94805 429.93564 377.94805 Z M 445.93564 377.94805 C 445.35564 377.94805 444.69564 377.98805 443.99564 378.04805 C 446.31564 379.72805 447.93564 381.98805 447.93564 384.94805 L 447.93564 389.94805 L 459.93564 389.94805 L 459.93564 384.94805 C 459.93564 380.28805 450.59564 377.94805 445.93564 377.94805 Z" fill="#929000"/>
      </g>
      <g id="Graphic_1284">
        <text transform="translate(414.1261 394.94805)" fill="black">
          <tspan font-family="Mark Pro" font-size="14" fill="black" x="20250468e-20" y="14">Admins</tspan>
        </text>
      </g>
      <g id="Graphic_1277">
        <text transform="translate(275.0028 394.94805)" fill="black">
          <tspan font-family="Mark Pro" font-size="14" fill="black" x="14921397e-20" y="14">Others</tspan>
        </text>
      </g>
      <g id="Graphic_1283">
        <title>People</title>
        <path d="M 306.5928 373.94805 C 309.9128 373.94805 312.5728 371.26805 312.5728 367.94805 C 312.5728 364.62805 309.9128 361.94805 306.5928 361.94805 C 303.2728 361.94805 300.5928 364.62805 300.5928 367.94805 C 300.5928 371.26805 303.2728 373.94805 306.5928 373.94805 Z M 290.5928 373.94805 C 293.9128 373.94805 296.5728 371.26805 296.5728 367.94805 C 296.5728 364.62805 293.9128 361.94805 290.5928 361.94805 C 287.2728 361.94805 284.5928 364.62805 284.5928 367.94805 C 284.5928 371.26805 287.2728 373.94805 290.5928 373.94805 Z M 290.5928 377.94805 C 285.9328 377.94805 276.5928 380.28805 276.5928 384.94805 L 276.5928 389.94805 L 304.5928 389.94805 L 304.5928 384.94805 C 304.5928 380.28805 295.2528 377.94805 290.5928 377.94805 Z M 306.5928 377.94805 C 306.0128 377.94805 305.3528 377.98805 304.6528 378.04805 C 306.9728 379.72805 308.5928 381.98805 308.5928 384.94805 L 308.5928 389.94805 L 320.5928 389.94805 L 320.5928 384.94805 C 320.5928 380.28805 311.2528 377.94805 306.5928 377.94805 Z" fill="url(#Obj_Gradient)"/>
      </g>
      <g id="Line_1286">
        <line x1="161.2595" y1="128.14548" x2="161.25462" y2="138.6" marker-end="url(#FilledArrow_Marker)" stroke="black" stroke-linecap="round" stroke-linejoin="round" stroke-width="1"/>
      </g>
      <g id="Line_1288">
        <line x1="299.425" y1="128.25325" x2="299.33557" y2="138.60037" marker-end="url(#FilledArrow_Marker)" stroke="black" stroke-linecap="round" stroke-linejoin="round" stroke-width="1"/>
      </g>
      <g id="Line_1290">
        <line x1="437.2271" y1="124.25325" x2="437.24066" y2="138.6" marker-end="url(#FilledArrow_Marker)" stroke="black" stroke-linecap="round" stroke-linejoin="round" stroke-width="1"/>
      </g>
      <g id="Line_1298">
        <line x1="161.03896" y1="360" x2="161.16559" y2="345.14964" marker-end="url(#FilledArrow_Marker)" stroke="black" stroke-linecap="round" stroke-linejoin="round" stroke-width="1"/>
      </g>
      <g id="Line_1299">
        <line x1="299.35065" y1="360" x2="299.29026" y2="345.1499" marker-end="url(#FilledArrow_Marker)" stroke="black" stroke-linecap="round" stroke-linejoin="round" stroke-width="1"/>
      </g>
      <g id="Line_1300">
        <line x1="437.013" y1="360" x2="437.1552" y2="345.14955" marker-end="url(#FilledArrow_Marker)" stroke="black" stroke-linecap="round" stroke-linejoin="round" stroke-width="1"/>
      </g>
      <g id="Line_1301">
        <line x1="54.938" y1="241.88312" x2="82.35" y2="241.87715" marker-end="url(#FilledArrow_Marker)" stroke="black" stroke-linecap="round" stroke-linejoin="round" stroke-width="1"/>
      </g>
      <g id="Line_1302">
        <line x1="555.75" y1="241.875" x2="516.15" y2="241.875" marker-end="url(#FilledArrow_Marker)" stroke="black" stroke-linecap="round" stroke-linejoin="round" stroke-width="1"/>
      </g>
    </g>
  </g>
</svg>
