<?xml version="1.0" standalone="no"?>
<!DOCTYPE svg PUBLIC "-//W3C//DTD SVG 20010904//EN"
 "http://www.w3.org/TR/2001/REC-SVG-20010904/DTD/svg10.dtd">
<svg version="1.0" xmlns="http://www.w3.org/2000/svg"
 width="375.000000pt" height="375.000000pt" viewBox="0 0 375.000000 375.000000"
 preserveAspectRatio="xMidYMid meet">
<metadata>
Created by potrace 1.11, written by Peter Selinger 2001-2013
</metadata>
<g transform="translate(0.000000,375.000000) scale(0.100000,-0.100000)"
fill="#000000" stroke="none">
<path d="M3708 3265 c-2 -2 -46 -6 -98 -9 -52 -4 -104 -9 -115 -11 -11 -3 -47
-7 -80 -10 -33 -2 -76 -7 -95 -9 -19 -2 -62 -7 -95 -10 -33 -4 -71 -9 -85 -11
-28 -5 -85 -13 -145 -20 -22 -3 -51 -7 -65 -10 -14 -2 -45 -7 -70 -10 -25 -3
-70 -10 -100 -15 -30 -5 -71 -11 -90 -14 -19 -3 -44 -7 -55 -10 -18 -3 -59
-10 -135 -22 -14 -3 -59 -11 -100 -19 -41 -8 -90 -17 -109 -20 -19 -3 -37 -7
-40 -9 -3 -2 -24 -7 -46 -10 -69 -11 -352 -76 -535 -123 -96 -24 -184 -46
-195 -49 -11 -2 -31 -8 -45 -13 -14 -5 -43 -14 -65 -20 -377 -104 -909 -301
-1263 -467 l-82 -39 0 -131 0 -132 193 83 c283 122 602 237 978 354 88 27 586
160 624 167 17 2 57 11 90 19 186 45 533 115 694 141 18 3 43 7 54 10 12 2 39
6 62 9 22 3 47 8 55 10 8 3 35 7 60 10 25 3 52 7 60 10 8 2 39 7 69 10 30 4
62 8 73 10 25 5 229 32 298 40 30 4 66 8 80 10 14 2 54 6 90 10 36 4 76 8 90
10 14 2 56 6 95 10 38 4 72 10 75 15 4 6 5 239 1 261 -1 5 -28 8 -33 4z"/>
<path d="M3365 2184 c-165 -35 -290 -114 -371 -235 -85 -125 -116 -281 -87
-429 41 -204 212 -384 411 -430 67 -16 184 -16 242 -1 63 17 180 72 181 85 0
6 2 19 4 29 4 19 -6 22 -21 8 -5 -6 -36 -23 -69 -39 -323 -159 -702 74 -714
441 -10 284 212 527 484 530 109 1 207 -28 288 -85 15 -11 27 -16 28 -11 0 4
2 16 4 26 4 22 -62 62 -147 88 -59 19 -191 31 -233 23z"/>
<path d="M3180 1818 c-30 -51 -58 -100 -63 -108 -4 -8 -25 -43 -45 -78 -31
-50 -38 -72 -38 -110 l1 -47 103 -3 103 -3 -1 -32 c-5 -88 -5 -88 50 -86 l50
3 0 58 c0 57 0 58 28 58 30 0 35 12 26 58 -3 16 -11 22 -29 22 -24 0 -25 2
-25 70 0 49 -4 70 -12 71 -7 0 -23 2 -35 3 -12 1 -26 0 -31 -3 -8 -5 -21 -83
-22 -128 0 -9 -18 -13 -56 -13 -43 0 -55 3 -51 13 3 8 44 81 91 163 l86 149
-33 17 c-17 9 -34 17 -37 18 -3 0 -30 -42 -60 -92z"/>
<path d="M3565 1887 c-41 -23 -85 -78 -85 -106 0 -9 14 -22 33 -29 28 -11 33
-10 42 5 38 66 101 84 131 38 35 -53 7 -101 -128 -222 -50 -44 -77 -106 -74
-173 l1 -35 127 0 c79 -1 129 3 131 10 4 8 3 43 -2 77 -1 4 -32 7 -71 6 -38
-1 -72 1 -75 4 -13 12 21 56 84 109 l66 56 -1 122 c0 143 -4 150 -85 156 -43
3 -63 -1 -94 -18z"/>
<path d="M288 1635 c-2 -2 -23 -5 -48 -8 -54 -6 -85 -13 -172 -38 l-68 -20 0
-99 c0 -55 1 -100 3 -100 2 0 21 8 43 19 90 43 171 62 266 62 115 0 183 -37
213 -114 15 -40 27 -199 15 -216 -3 -4 -48 -11 -100 -15 -161 -11 -235 -28
-339 -77 -110 -51 -101 -15 -101 -390 l0 -327 44 -22 c87 -42 239 -37 342 11
54 25 138 84 168 118 l20 22 25 -64 c15 -35 36 -76 47 -92 25 -34 31 -32 127
29 l57 37 -30 58 c-16 33 -31 71 -34 85 -3 14 -8 31 -12 37 -4 6 -8 192 -9
413 -1 284 -6 414 -14 446 -35 125 -117 200 -251 231 -40 10 -185 20 -192 14z
m256 -865 c-1 -192 4 -180 -94 -254 -73 -56 -121 -77 -189 -83 -130 -12 -218
94 -206 249 8 109 71 180 197 222 71 24 236 47 278 38 13 -3 15 -29 14 -172z"/>
<path d="M1137 1596 c-37 -22 -69 -47 -72 -55 -3 -7 6 -36 19 -65 51 -107 50
-99 51 -648 1 -285 4 -520 7 -523 12 -13 181 -6 190 7 4 7 8 216 8 463 l0 450
41 50 c112 136 171 172 250 149 24 -8 45 -14 47 -14 3 0 33 68 62 142 l19 46
-37 18 c-52 25 -147 22 -202 -6 -50 -25 -119 -87 -171 -152 l-37 -48 -22 73
c-23 77 -56 143 -75 150 -6 3 -41 -14 -78 -37z"/>
<path d="M2197 1615 c-135 -39 -235 -127 -306 -267 -66 -132 -84 -223 -85
-418 -1 -186 3 -218 39 -326 94 -281 326 -398 628 -318 99 27 214 79 230 105
7 11 1 36 -19 87 -15 40 -31 72 -36 72 -4 0 -39 -16 -76 -35 -38 -19 -89 -42
-113 -51 -60 -21 -173 -25 -231 -8 -107 32 -183 158 -204 334 -7 64 -7 283 1
320 2 14 7 36 10 50 3 14 7 34 9 46 7 34 35 97 62 136 45 65 134 108 227 110
88 1 154 -25 248 -98 l56 -43 42 80 42 80 -35 34 c-41 38 -136 86 -221 110
-85 25 -183 25 -268 0z"/>
</g>
</svg>
