<?xml version="1.0" encoding="UTF-8" standalone="no"?>
<!DOCTYPE svg PUBLIC "-//W3C//DTD SVG 1.1//EN" "http://www.w3.org/Graphics/SVG/1.1/DTD/svg11.dtd">
<svg xmlns="http://www.w3.org/2000/svg" xmlns:xl="http://www.w3.org/1999/xlink" xmlns:dc="http://purl.org/dc/elements/1.1/" version="1.1" viewBox="0 0 20 20" width="20" height="20">
  <defs/>
  <metadata> Produced by OmniGraffle 7.18.5\n2021-10-05 19:51:00 +0000</metadata>
  <g id="Canvas_1" stroke-opacity="1" fill-opacity="1" stroke-dasharray="none" stroke="none" fill="none">
    <title>Canvas 1</title>
    <g id="Canvas_1_Layer_1">
      <title>Layer 1</title>
      <g id="Graphic_2">
        <path d="M 10 -17763568e-22 C 4.488997 -17763568e-22 -17763568e-22 4.488997 -17763568e-22 10 C -17763568e-22 15.511003 4.488997 20 10 20 C 15.511003 20 20 15.511003 20 10 C 20 4.488997 15.511003 -17763568e-22 10 -17763568e-22 Z M 10 2 C 14.430123 2 18 5.5698774 18 10 C 18 14.430123 14.430123 18 10 18 C 5.5698774 18 2 14.430123 2 10 C 2 5.5698774 5.5698774 2 10 2 Z M 9 5 L 9 7 L 11 7 L 11 5 Z M 9 9 L 9 15 L 11 15 L 11 9 Z" fill="blue"/>
      </g>
    </g>
  </g>
</svg>
