<?xml version="1.0" encoding="utf-8"?>
<svg id="arc42help" x="0px" y="0px" width="128px" height="128px" viewBox="0 0 128 128" xmlns="http://www.w3.org/2000/svg">
  <g>
    <path d="M 51.269 82.91 L 49.14 77.15 C 49.14 74.5 49.41 72.11 49.95 69.95 C 50.5 67.8 51.33 65.75 52.44 63.8 C 53.55 61.86 54.99 59.97 56.76 58.12 C 58.52 56.29 60.65 54.38 63.14 52.41 C 65.32 50.7 67.16 49.17 68.67 47.82 C 70.17 46.47 71.39 45.13 72.32 43.82 C 73.26 42.49 73.93 41.11 74.35 39.66 C 74.76 38.21 74.97 36.52 74.97 34.6 C 74.97 31.64 73.97 29.21 71.97 27.29 C 69.97 25.37 66.93 24.41 62.83 24.41 C 59.25 24.41 55.4 25.16 51.27 26.67 C 47.15 28.18 43.267 29.633 38.867 31.813 L 30.55 15.01 C 32.78 13.71 35.2 12.48 37.82 11.31 C 40.44 10.14 43.16 9.11 45.99 8.2 C 48.82 7.29 51.68 6.58 54.59 6.06 C 57.5 5.54 60.35 5.28 63.15 5.28 C 68.44 5.28 73.21 5.92 77.46 7.19 C 81.72 8.46 85.32 10.32 88.28 12.75 C 91.24 15.19 93.5 18.15 95.09 21.62 C 96.67 25.09 97.46 29.06 97.46 33.52 C 97.46 36.79 97.1 39.71 96.37 42.27 C 95.64 44.83 94.56 47.22 93.14 49.43 C 91.71 51.63 89.92 53.76 87.77 55.81 C 85.62 57.86 83.11 60.02 80.26 62.3 C 78.08 64.01 76.31 65.5 74.93 66.77 C 73.55 68.04 72.48 69.25 71.7 70.39 C 70.92 71.54 70.39 72.71 70.1 73.93 C 69.81 75.15 69.67 76.59 69.67 78.25 L 67.928 82.92 L 51.076 82.92 L 51.269 82.91 Z M 46.57 109.51 C 46.57 107.07 46.92 105.01 47.62 103.32 C 48.32 101.64 49.29 100.28 50.54 99.24 C 51.78 98.2 53.25 97.45 54.94 96.98 C 56.62 96.52 58.42 96.28 60.35 96.28 C 62.17 96.28 63.89 96.52 65.53 96.98 C 67.16 97.44 68.6 98.2 69.85 99.24 C 71.09 100.28 72.08 101.64 72.81 103.32 C 73.54 105.01 73.9 107.07 73.9 109.51 C 73.9 111.84 73.54 113.84 72.81 115.5 C 72.08 117.16 71.1 118.53 69.85 119.62 C 68.6 120.71 67.17 121.5 65.53 121.99 C 63.89 122.49 62.17 122.73 60.35 122.73 C 58.43 122.73 56.63 122.49 54.94 121.99 C 53.25 121.5 51.78 120.71 50.54 119.62 C 49.3 118.53 48.33 117.16 47.62 115.5 C 46.92 113.84 46.57 111.84 46.57 109.51 Z" style="fill: rgb(12, 48, 154);"/>
  </g>
</svg>
